HIERARCHY
ROOT Hips
{
  OFFSET 5.84602e-005 68.8428 3.50346
  CHANNELS 6 Xposition Yposition Zposition Zrotation Xrotation Yrotation
  JOINT Spine
  {
    OFFSET 0 8.597 -4.6522
    CHANNELS 3 Zrotation Xrotation Yrotation
    JOINT Spine1
    {
      OFFSET 0 7.8454 0.4098
      CHANNELS 3 Zrotation Xrotation Yrotation
      JOINT Spine2
      {
        OFFSET 0 9.7078 -2.1609
        CHANNELS 3 Zrotation Xrotation Yrotation
        JOINT Neck
        {
          OFFSET 0 21.8761 -0.4549
          CHANNELS 3 Zrotation Xrotation Yrotation
          JOINT Head
          {
            OFFSET 0 12.3537 3.3602
            CHANNELS 3 Zrotation Xrotation Yrotation
            End Site
            {
              OFFSET 0.0001 18.9506 0.5657
            }
          }
        }
        JOINT LeftShoulder
        {
          OFFSET 2.2086 21.1115 7.2329
          CHANNELS 3 Zrotation Xrotation Yrotation
          JOINT LeftArm
          {
            OFFSET 13.1193 3.0282 -4.8998
            CHANNELS 3 Zrotation Xrotation Yrotation
            JOINT LeftForeArm
            {
              OFFSET 27.4081 -0.0973053 -0.2375
              CHANNELS 3 Zrotation Xrotation Yrotation
              JOINT LeftHand
              {
                OFFSET 22.8641 0.0662994 -0.1369
                CHANNELS 3 Zrotation Xrotation Yrotation
                JOINT LeftHandIndex1
                {
                  OFFSET 8.8614 0.775009 2.4612
                  CHANNELS 3 Zrotation Xrotation Yrotation
                  JOINT LeftHandIndex2
                  {
                    OFFSET 3.3146 -0.808304 0.5841
                    CHANNELS 3 Zrotation Xrotation Yrotation
                    JOINT LeftHandIndex3
                    {
                      OFFSET 2.2628 -0.552002 0.3989
                      CHANNELS 3 Zrotation Xrotation Yrotation
                      End Site
                      {
                        OFFSET 1.6102 -0.4807 0.2612
                      }
                    }
                  }
                }
                JOINT LeftHandMiddle1
                {
                  OFFSET 8.9937 0.895004 0.2143
                  CHANNELS 3 Zrotation Xrotation Yrotation
                  JOINT LeftHandMiddle2
                  {
                    OFFSET 4.0984 0.0113983 -0.0242
                    CHANNELS 3 Zrotation Xrotation Yrotation
                    JOINT LeftHandMiddle3
                    {
                      OFFSET 2.2716 0.00689697 -0.0138001
                      CHANNELS 3 Zrotation Xrotation Yrotation
                      End Site
                      {
                        OFFSET 2.0404 -0.1441 0.0027
                      }
                    }
                  }
                }
                JOINT LeftHandRing1
                {
                  OFFSET 8.5234 0.597198 -2.0164
                  CHANNELS 3 Zrotation Xrotation Yrotation
                  JOINT LeftHandRing2
                  {
                    OFFSET 3.7188 -0.188293 -0.2328
                    CHANNELS 3 Zrotation Xrotation Yrotation
                    JOINT LeftHandRing3
                    {
                      OFFSET 2.1191 -0.106598 -0.1332
                      CHANNELS 3 Zrotation Xrotation Yrotation
                      End Site
                      {
                        OFFSET 1.8737 -0.2304 -0.0886
                      }
                    }
                  }
                }
                JOINT LeftHandPinky1
                {
                  OFFSET 7.9094 -0.601089 -3.4825
                  CHANNELS 3 Zrotation Xrotation Yrotation
                  JOINT LeftHandPinky2
                  {
                    OFFSET 2.2874 -0.477005 -0.6314
                    CHANNELS 3 Zrotation Xrotation Yrotation
                    JOINT LeftHandPinky3
                    {
                      OFFSET 1.6774 -0.349396 -0.4633
                      CHANNELS 3 Zrotation Xrotation Yrotation
                      End Site
                      {
                        OFFSET 1.4888 -0.4091 -0.3416
                      }
                    }
                  }
                }
                JOINT LeftHandThumb1
                {
                  OFFSET 1.833 -1.3875 1.3896
                  CHANNELS 3 Zrotation Xrotation Yrotation
                  JOINT LeftHandThumb2
                  {
                    OFFSET 3.4129 -1.121 2.5732
                    CHANNELS 3 Zrotation Xrotation Yrotation
                    JOINT LeftHandThumb3
                    {
                      OFFSET 2.2474 -0.804199 1.6192
                      CHANNELS 3 Zrotation Xrotation Yrotation
                      End Site
                      {
                        OFFSET 1.6527 -0.5689 1.1317
                      }
                    }
                  }
                }
              }
            }
          }
        }
        JOINT RightShoulder
        {
          OFFSET -2.2086 21.1115 7.2329
          CHANNELS 3 Zrotation Xrotation Yrotation
          JOINT RightArm
          {
            OFFSET -13.1216 3.0287 -4.9007
            CHANNELS 3 Zrotation Xrotation Yrotation
            JOINT RightForeArm
            {
              OFFSET -27.4081 -0.0973053 -0.2375
              CHANNELS 3 Zrotation Xrotation Yrotation
              JOINT RightHand
              {
                OFFSET -22.8641 0.0664063 -0.1369
                CHANNELS 3 Zrotation Xrotation Yrotation
                JOINT RightHandIndex1
                {
                  OFFSET -8.8614 0.774994 2.4612
                  CHANNELS 3 Zrotation Xrotation Yrotation
                  JOINT RightHandIndex2
                  {
                    OFFSET -3.3146 -0.808304 0.5841
                    CHANNELS 3 Zrotation Xrotation Yrotation
                    JOINT RightHandIndex3
                    {
                      OFFSET -2.2628 -0.552002 0.3989
                      CHANNELS 3 Zrotation Xrotation Yrotation
                      End Site
                      {
                        OFFSET -1.6102 -0.4807 0.2612
                      }
                    }
                  }
                }
                JOINT RightHandMiddle1
                {
                  OFFSET -8.9937 0.894989 0.2143
                  CHANNELS 3 Zrotation Xrotation Yrotation
                  JOINT RightHandMiddle2
                  {
                    OFFSET -4.0984 0.0113983 -0.0242
                    CHANNELS 3 Zrotation Xrotation Yrotation
                    JOINT RightHandMiddle3
                    {
                      OFFSET -2.2716 0.00691223 -0.0138001
                      CHANNELS 3 Zrotation Xrotation Yrotation
                      End Site
                      {
                        OFFSET -2.0404 -0.1441 0.0027
                      }
                    }
                  }
                }
                JOINT RightHandRing1
                {
                  OFFSET -8.5234 0.597198 -2.0164
                  CHANNELS 3 Zrotation Xrotation Yrotation
                  JOINT RightHandRing2
                  {
                    OFFSET -3.7188 -0.188309 -0.2328
                    CHANNELS 3 Zrotation Xrotation Yrotation
                    JOINT RightHandRing3
                    {
                      OFFSET -2.1191 -0.106598 -0.1332
                      CHANNELS 3 Zrotation Xrotation Yrotation
                      End Site
                      {
                        OFFSET -1.8737 -0.2304 -0.0886
                      }
                    }
                  }
                }
                JOINT RightHandPinky1
                {
                  OFFSET -7.9094 -0.601105 -3.4825
                  CHANNELS 3 Zrotation Xrotation Yrotation
                  JOINT RightHandPinky2
                  {
                    OFFSET -2.2874 -0.477005 -0.6314
                    CHANNELS 3 Zrotation Xrotation Yrotation
                    JOINT RightHandPinky3
                    {
                      OFFSET -1.6774 -0.349396 -0.4633
                      CHANNELS 3 Zrotation Xrotation Yrotation
                      End Site
                      {
                        OFFSET -1.4888 -0.4091 -0.3416
                      }
                    }
                  }
                }
                JOINT RightHandThumb1
                {
                  OFFSET -1.833 -1.38751 1.3896
                  CHANNELS 3 Zrotation Xrotation Yrotation
                  JOINT RightHandThumb2
                  {
                    OFFSET -3.41299 -1.12099 2.5732
                    CHANNELS 3 Zrotation Xrotation Yrotation
                    JOINT RightHandThumb3
                    {
                      OFFSET -2.24741 -0.804108 1.6192
                      CHANNELS 3 Zrotation Xrotation Yrotation
                      End Site
                      {
                        OFFSET -1.6527 -0.5689 1.1317
                      }
                    }
                  }
                }
              }
            }
          }
        }
      }
    }
  }
  JOINT RightUpLeg
  {
    OFFSET -9.1966 3.8861 -0.7581
    CHANNELS 3 Zrotation Xrotation Yrotation
    JOINT RightLeg
    {
      OFFSET -0.7359 -41.0265 0
      CHANNELS 3 Zrotation Xrotation Yrotation
      JOINT RightFoot
      {
        OFFSET 0 -40.2855 0
        CHANNELS 3 Zrotation Xrotation Yrotation
        JOINT RightToeBase
        {
          OFFSET 0 -5.6122 11.7359
          CHANNELS 3 Zrotation Xrotation Yrotation
          End Site
          {
            OFFSET 0 0 7.8731
          }
        }
      }
    }
  }
  JOINT LeftUpLeg
  {
    OFFSET 9.1965 3.8864 -0.7581
    CHANNELS 3 Zrotation Xrotation Yrotation
    JOINT LeftLeg
    {
      OFFSET 0.7359 -41.0268 0
      CHANNELS 3 Zrotation Xrotation Yrotation
      JOINT LeftFoot
      {
        OFFSET 0 -40.2855 0
        CHANNELS 3 Zrotation Xrotation Yrotation
        JOINT LeftToeBase
        {
          OFFSET 0 -5.6122 11.7359
          CHANNELS 3 Zrotation Xrotation Yrotation
          End Site
          {
            OFFSET 0 0 7.8731
          }
        }
      }
    }
  }
}
MOTION
Frames:	6
Frame Time:	0.0333333
0.790543 13.9534 18.2366 173.405 -88.2826 -6.38877 -0.0937337 -3.60124 -0.280082 -0.205755 -7.20198 -0.567767 -0.205755 -7.20195 -0.567767 7.00786 -2.9353 -4.641 4.27567e-007 -13.086 1.65438e-006 10.55 6.08122 -17.0441 -16.9555 -17.1796 -31.6005 2.37079 7.98383 -45.4166 59.2524 -1.77853 -5.95695 -9.65542e-033 1.39149e-015 3.97569e-016 1.59028e-015 2.18663e-015 1.59028e-015 -1.59028e-015 1.49089e-015 7.95139e-016 -9.65542e-033 1.39149e-015 3.97569e-016 -0.0146263 -8.8419e-005 3.29056e-007 -1.59028e-015 1.98785e-016 1.59028e-015 -9.65542e-033 1.39149e-015 3.97569e-016 -0.0187383 -0.0011743 5.25041e-005 1.59028e-015 -2.98177e-016 3.97569e-016 -9.65542e-033 1.39149e-015 3.97569e-016 -0.0122591 -0.00324402 0.000670006 3.18055e-015 -1.2921e-015 -1.19271e-015 -9.65542e-033 1.39149e-015 3.97569e-016 1.59028e-015 2.18663e-015 1.59028e-015 -1.59028e-015 1.49089e-015 7.95139e-016 22.6221 3.46902 2.47847 8.35063 9.11211 41.7759 -11.5376 -13.2931 26.979 -57.9596 0.772315 4.04518 -7.94503e-030 2.8625e-014 1.59028e-014 -3.18055e-015 2.8625e-014 1.27222e-014 -5.03185e-030 3.02153e-014 9.54166e-015 -7.94503e-030 2.8625e-014 1.59028e-014 0.0149903 -9.04311e-005 -2.28096e-006 1.59028e-014 -1.74931e-014 -0 -7.94503e-030 2.8625e-014 1.59028e-014 0.0189974 -0.00119124 -5.80532e-005 1.59028e-015 2.22639e-014 -6.36111e-015 -7.94503e-030 2.8625e-014 1.59028e-014 0.0122574 -0.00324505 -0.000679176 -1.59028e-015 1.59028e-015 3.18055e-015 -7.94503e-030 2.8625e-014 1.59028e-014 -3.18055e-015 2.8625e-014 1.27222e-014 -5.03185e-030 3.02153e-014 9.54166e-015 -13.8434 -35.8234 -25.059 5.90286 40.828 -3.99959 -3.36577 50.5955 7.08936 -6.57143e-008 -3.25073e-008 -2.00414e-007 12.9936 -34.9677 24.5241 -5.69402 39.051 4.08903 3.31084 50.3043 -6.91074 7.64353e-007 1.01437e-006 6.6369e-007 
0.791162 14.0904 18.3233 174.868 -87.714 -4.91906 -0.0928289 -3.6518 -0.280551 -0.204241 -7.3031 -0.568782 -0.204241 -7.3031 -0.568782 7.00993 -3.2353 -4.60402 -1.38632e-006 -13.1304 1.5307e-006 10.7125 5.81707 -16.745 -17.0041 -17.148 -31.6852 2.36892 7.98288 -45.7485 59.2833 -1.71402 -5.73556 -4.54567e-007 -4.81338e-007 2.38298e-007 -1.59028e-015 -2.28602e-015 -0 -1.59028e-015 -2.08724e-015 1.19271e-015 -4.54567e-007 -4.81338e-007 2.38298e-007 -0.0146341 -8.79932e-005 2.33476e-008 -1.59028e-015 1.30204e-014 1.59028e-015 -4.54567e-007 -4.81338e-007 2.38298e-007 -0.0187498 -0.00117663 6.63099e-005 3.18055e-015 6.95746e-016 3.97569e-016 -4.54567e-007 -4.81338e-007 2.38298e-007 -0.0122847 -0.0032532 0.000683821 1.59028e-015 3.97569e-016 -7.95139e-016 -4.54567e-007 -4.81338e-007 2.38298e-007 -1.59028e-015 -2.28602e-015 -0 -1.59028e-015 -2.08724e-015 1.19271e-015 22.4816 3.32954 2.3299 8.37326 9.14213 41.9339 -11.5593 -13.3055 27.157 -58.0343 0.741125 3.89573 1.27932e-007 -4.22619e-007 2.57143e-006 -9.91936e-007 -2.35167e-007 -2.82657e-006 3.06776e-007 -1.89192e-007 3.07974e-006 1.27932e-007 -4.22619e-007 2.57143e-006 0.0149921 -9.2333e-005 -8.186e-006 3.0656e-007 -1.88788e-007 3.07977e-006 1.27932e-007 -4.22619e-007 2.57143e-006 0.0190201 -0.0011926 -5.66186e-005 4.87933e-007 4.46872e-008 3.58803e-006 1.27932e-007 -4.22619e-007 2.57143e-006 0.0122744 -0.00324949 -0.000671085 3.06686e-007 -1.88813e-007 3.07976e-006 1.27932e-007 -4.22619e-007 2.57143e-006 -9.91936e-007 -2.35167e-007 -2.82657e-006 3.06776e-007 -1.89192e-007 3.07974e-006 -14.1012 -36.5196 -25.5546 5.88018 41.0277 -4.00982 -3.71081 50.5767 7.42904 -1.31449e-007 -6.49963e-008 -4.00824e-007 13.2556 -35.6852 25.0035 -5.6857 39.2825 4.10869 3.64168 50.2698 -7.24333 2.68466e-007 -3.29585e-006 5.85178e-008 
0.791793 14.2277 18.4093 175.747 -87.1447 -4.03402 -0.091922 -3.70237 -0.281014 -0.202723 -7.40422 -0.569787 -0.202724 -7.40424 -0.569787 7.01207 -3.53608 -4.56698 5.62266e-007 -13.1748 -1.24945e-006 10.8763 5.55385 -16.4454 -17.0527 -17.1162 -31.7699 2.36705 7.98196 -46.0805 59.3141 -1.64938 -5.5142 -3.18055e-015 -3.97569e-016 1.19271e-015 -3.18055e-015 4.96962e-016 7.95139e-016 -1.59028e-015 3.97569e-016 -7.95139e-016 -3.18055e-015 -3.97569e-016 1.19271e-015 -0.0146183 -8.91654e-005 2.8828e-006 -4.52991e-007 -4.81836e-007 2.38294e-007 -3.18055e-015 -3.97569e-016 1.19271e-015 -0.0187476 -0.00117482 5.57607e-005 1.59028e-015 -1.49089e-015 3.97569e-016 -3.18055e-015 -3.97569e-016 1.19271e-015 -0.0122751 -0.00324952 0.000678583 -0 -1.88845e-015 -0 -3.18055e-015 -3.97569e-016 1.19271e-015 -3.18055e-015 4.96962e-016 7.95139e-016 -1.59028e-015 3.97569e-016 -7.95139e-016 22.3408 3.19045 2.18099 8.39579 9.17219 42.0919 -11.5809 -13.3179 27.3351 -58.1092 0.710133 3.74626 3.18055e-015 -4.77083e-015 9.54166e-015 4.41391e-031 -7.95139e-015 3.18055e-015 3.18055e-015 -6.36111e-015 -0 3.18055e-015 -4.77083e-015 9.54166e-015 0.0149741 -9.39106e-005 -7.791e-006 1.90833e-014 -2.38542e-014 -0 3.18055e-015 -4.77083e-015 9.54166e-015 0.0189822 -0.00119037 -6.12418e-005 1.59028e-015 -3.18055e-015 -0 3.18055e-015 -4.77083e-015 9.54166e-015 0.0122651 -0.003245 -0.000673112 4.77083e-015 0 -0 3.18055e-015 -4.77083e-015 9.54166e-015 4.41391e-031 -7.95139e-015 3.18055e-015 3.18055e-015 -6.36111e-015 -0 -14.3687 -37.2135 -26.0584 5.85758 41.2272 -4.01999 -4.05557 50.5567 7.76838 -4.64059e-006 1.97481e-006 -2.83146e-007 13.5273 -36.4006 25.491 -5.6776 39.5139 4.12839 3.97199 50.2339 -7.5753 -1.34748e-007 6.75932e-008 -3.99297e-007 
0.792434 14.3654 18.4945 176.333 -86.5751 -3.44238 -0.0910145 -3.75288 -0.281471 -0.2012 -7.50526 -0.570775 -0.2012 -7.50528 -0.570775 7.01449 -3.83631 -4.52992 -6.14206e-007 -13.2192 -5.60801e-007 11.0414 5.29142 -16.1452 -17.1013 -17.0845 -31.8545 2.36515 7.98104 -46.4124 59.3445 -1.58464 -5.29288 -1.29208e-007 -1.33578e-007 -2.73663e-007 -2.75093e-007 -9.07345e-007 -8.13284e-008 -5.83012e-007 -6.15839e-007 -3.51393e-008 -1.29208e-007 -1.33578e-007 -2.73663e-007 -0.0145992 -8.83941e-005 1.91902e-006 -5.83001e-007 -6.15834e-007 -3.52173e-008 -1.29208e-007 -1.33578e-007 -2.73663e-007 -0.0187478 -0.00117613 5.48094e-005 -5.82998e-007 -6.15832e-007 -3.52341e-008 -1.29208e-007 -1.33578e-007 -2.73663e-007 -0.0123024 -0.00325879 0.00068307 -5.83007e-007 -6.15829e-007 -3.51894e-008 -1.29208e-007 -1.33578e-007 -2.73663e-007 -2.75093e-007 -9.07345e-007 -8.13284e-008 -5.83012e-007 -6.15839e-007 -3.51393e-008 22.1996 3.05166 2.03179 8.41826 9.20232 42.25 -11.6025 -13.3304 27.5132 -58.1841 0.679338 3.59677 -8.06723e-007 -1.48523e-006 1.07306e-007 -7.42617e-007 4.03362e-007 -1.08948e-007 -7.42617e-007 4.03362e-007 -1.08948e-007 -8.06723e-007 -1.48523e-006 1.07306e-007 0.0149889 -9.08196e-005 1.56713e-006 -7.4261e-007 4.03347e-007 -1.09e-007 -8.06723e-007 -1.48523e-006 1.07306e-007 0.019006 -0.00119065 -5.69612e-005 -7.4261e-007 4.03343e-007 -1.09007e-007 -8.06723e-007 -1.48523e-006 1.07306e-007 0.0122743 -0.00324944 -0.000681414 -7.42617e-007 4.03344e-007 -1.0897e-007 -8.06723e-007 -1.48523e-006 1.07306e-007 -7.42617e-007 4.03362e-007 -1.08948e-007 -7.42617e-007 4.03362e-007 -1.08948e-007 -14.6463 -37.9052 -26.5706 5.83505 41.4266 -4.03006 -4.40002 50.5353 8.10733 1.31491e-007 6.49528e-008 4.00819e-007 13.809 -37.1137 25.9871 -5.66976 39.7452 4.14814 4.3018 50.1969 -7.90668 2.76568e-006 5.19987e-006 7.39068e-007 
0.793085 14.5033 18.579 176.75 -86.0054 -3.01871 -0.0901039 -3.80338 -0.281922 -0.199672 -7.60626 -0.57175 -0.199672 -7.60625 -0.57175 7.01703 -4.13748 -4.49282 -1.36453e-006 -13.2635 5.42477e-007 11.2078 5.02989 -15.8443 -17.1498 -17.0526 -31.9391 2.36329 7.98013 -46.7443 59.3748 -1.51978 -5.07162 -4.53259e-007 -4.82684e-007 2.38812e-007 3.18055e-015 8.94531e-016 -3.97569e-016 1.59028e-015 2.38542e-015 -1.98785e-015 -4.53259e-007 -4.82684e-007 2.38812e-007 -0.0146109 -8.68077e-005 -7.85038e-006 -3.18055e-015 -1.68967e-015 -3.97569e-016 -4.53259e-007 -4.82684e-007 2.38812e-007 -0.0187496 -0.00117486 5.90115e-005 -3.18055e-015 1.49089e-015 1.19271e-015 -4.53259e-007 -4.82684e-007 2.38812e-007 -0.0122904 -0.00325412 0.000682334 -1.59028e-015 9.93923e-017 7.95139e-016 -4.53259e-007 -4.82684e-007 2.38812e-007 3.18055e-015 8.94531e-016 -3.97569e-016 1.59028e-015 2.38542e-015 -1.98785e-015 22.0581 2.91321 1.8823 8.44063 9.23252 42.408 -11.624 -13.343 27.6913 -58.259 0.64875 3.44722 -8.65607e-007 -6.56516e-007 -2.57118e-007 -5.60797e-007 6.34733e-007 4.03843e-007 -8.65607e-007 -6.56516e-007 -2.57118e-007 -8.65607e-007 -6.56516e-007 -2.57118e-007 0.0149903 -9.08699e-005 -1.75494e-006 -8.66596e-007 -6.56543e-007 -2.57032e-007 -8.65607e-007 -6.56516e-007 -2.57118e-007 0.0189658 -0.00119176 -5.46786e-005 -8.6686e-007 -6.5648e-007 -2.56997e-007 -8.65607e-007 -6.56516e-007 -2.57118e-007 0.01225 -0.00324217 -0.000671897 -8.66418e-007 -6.56334e-007 -2.56979e-007 -8.65607e-007 -6.56516e-007 -2.57118e-007 -5.60797e-007 6.34733e-007 4.03843e-007 -8.65607e-007 -6.56516e-007 -2.57118e-007 -14.934 -38.5944 -27.0917 5.8126 41.6258 -4.04006 -4.74419 50.5127 8.44591 -1.66902e-006 3.70916e-010 3.25645e-007 14.1008 -37.8243 26.4919 -5.66212 39.9765 4.1679 4.63104 50.1585 -8.23742 1.53101e-006 3.22712e-006 1.98128e-009 
0.793748 14.6414 18.6628 177.063 -85.4357 -2.70014 -0.0891912 -3.85387 -0.282368 -0.198142 -7.70724 -0.572715 -0.198142 -7.70723 -0.572715 7.01993 -4.43698 -4.45571 1.64317e-007 -13.3079 7.52833e-009 11.3754 4.76939 -15.543 -17.1982 -17.0207 -32.0236 2.36139 7.97923 -47.0761 59.4047 -1.45479 -4.85043 -1.27222e-014 -9.74045e-015 -2.78299e-015 -9.54166e-015 -9.64106e-015 -3.97569e-015 -9.54166e-015 -9.74045e-015 -4.37326e-015 -1.27222e-014 -9.74045e-015 -2.78299e-015 -0.0146123 -8.82873e-005 -8.14099e-006 4.51356e-007 4.83102e-007 -2.39154e-007 -1.27222e-014 -9.74045e-015 -2.78299e-015 -0.0187657 -0.00117677 5.89554e-005 3.18055e-015 1.61016e-014 7.95139e-016 -1.27222e-014 -9.74045e-015 -2.78299e-015 -0.0122241 -0.00323778 0.000680373 1.59028e-015 4.27387e-015 3.97569e-016 -1.27222e-014 -9.74045e-015 -2.78299e-015 -9.54166e-015 -9.64106e-015 -3.97569e-015 -9.54166e-015 -9.74045e-015 -4.37326e-015 21.9163 2.77525 1.73245 8.46293 9.26276 42.566 -11.6455 -13.3556 27.8694 -58.3341 0.618349 3.29765 1.43125e-014 -2.38542e-014 1.59028e-014 1.59028e-014 -2.22639e-014 6.36111e-015 1.43125e-014 -2.06736e-014 1.59028e-014 1.43125e-014 -2.38542e-014 1.59028e-014 0.014981 -9.05823e-005 2.23555e-006 1.74931e-014 -2.38542e-014 -6.36111e-015 1.43125e-014 -2.38542e-014 1.59028e-014 0.0190017 -0.0011925 -6.24311e-005 1.59028e-015 -4.77083e-015 3.18055e-015 1.43125e-014 -2.38542e-014 1.59028e-014 0.0122611 -0.00324736 -0.00068081 1.59028e-015 -3.18055e-015 -0 1.43125e-014 -2.38542e-014 1.59028e-014 1.59028e-014 -2.22639e-014 6.36111e-015 1.43125e-014 -2.06736e-014 1.59028e-014 -15.2324 -39.281 -27.6218 5.79021 41.8249 -4.04997 -5.08801 50.4888 8.78408 6.57678e-008 3.24496e-008 2.00407e-007 14.4031 -38.5323 27.0057 -5.65465 40.2074 4.18768 4.95975 50.1192 -8.56754 -2.68135e-007 3.29549e-006 -5.73928e-008 
